<svg width="26" height="26" viewBox="0 0 26 26" fill="none" xmlns="http://www.w3.org/2000/svg">
<g clip-path="url(#clip0_380_3166)">
<path d="M24.2842 26H1.71583C0.768842 26 0 25.2312 0 24.2842V1.71583C0 0.768842 0.768842 0 1.71583 0H24.2842C25.2312 0 26 0.768842 26 1.71583V24.2842C26 25.2312 25.2312 26 24.2842 26ZM1.71583 0.728994C1.17202 0.728994 0.728994 1.17202 0.728994 1.71583V24.2842C0.728994 24.828 1.17202 25.271 1.71583 25.271H24.2842C24.828 25.271 25.271 24.828 25.271 24.2842V1.71583C25.271 1.17202 24.828 0.728994 24.2842 0.728994H1.71583Z" fill="black"/>
<path d="M17.2216 8.54636C17.843 8.54636 18.3467 7.6858 18.3467 6.62425C18.3467 5.5627 17.843 4.70215 17.2216 4.70215C16.6002 4.70215 16.0964 5.5627 16.0964 6.62425C16.0964 7.6858 16.6002 8.54636 17.2216 8.54636Z" fill="black"/>
<path d="M21.5393 8.54636C22.1607 8.54636 22.6645 7.6858 22.6645 6.62425C22.6645 5.5627 22.1607 4.70215 21.5393 4.70215C20.9179 4.70215 20.4142 5.5627 20.4142 6.62425C20.4142 7.6858 20.9179 8.54636 21.5393 8.54636Z" fill="black"/>
<path d="M19.3007 12.8617C17.7982 12.8617 16.8465 11.8983 16.8324 11.8843C16.6941 11.7389 16.6965 11.5092 16.8418 11.3686C16.9871 11.2303 17.2169 11.2326 17.3552 11.378C17.4255 11.4506 19.0663 13.075 21.4549 11.3358C21.6166 11.2186 21.8463 11.2537 21.9635 11.4155C22.0807 11.5772 22.0456 11.8069 21.8838 11.9241C20.9204 12.625 20.0438 12.8594 19.3007 12.8594V12.8617Z" fill="black"/>
<path d="M22.0198 26.0003H4.60132V25.5502H4.96464V25.2713H21.2932V15.8624C21.2932 15.1568 20.8501 14.5825 20.3063 14.5825H13.0539V13.8535H20.3063C21.2533 13.8535 22.0222 14.7536 22.0222 15.86V25.9956L22.0198 26.0003Z" fill="black"/>
<path d="M11.6475 19.3383H0.0351562V1.71583C0.0351562 0.768842 0.806343 0 1.75099 0H13.3633V17.6224C13.3633 18.5694 12.5945 19.3383 11.6475 19.3383ZM0.76415 18.6093H11.6475C12.1913 18.6093 12.6343 18.1662 12.6343 17.6224V0.728994H1.75099C1.20717 0.728994 0.76415 1.17202 0.76415 1.71583V18.6093Z" fill="black"/>
<path d="M6.61954 14.1085C5.11702 14.1085 4.16534 13.1451 4.15128 13.1311C4.01298 12.9857 4.01532 12.756 4.16065 12.6154C4.30598 12.4771 4.5357 12.4794 4.674 12.6248C4.74197 12.6951 6.3828 14.3218 8.77371 12.5849C8.93545 12.4677 9.16516 12.5029 9.28236 12.6646C9.39957 12.8264 9.36441 13.0561 9.20267 13.1733C8.23927 13.8741 7.3626 14.1085 6.61954 14.1085Z" fill="black"/>
<path d="M4.31296 9.19373C5.09877 9.19373 5.73579 8.14322 5.73579 6.84735C5.73579 5.55148 5.09877 4.50098 4.31296 4.50098C3.52716 4.50098 2.89014 5.55148 2.89014 6.84735C2.89014 8.14322 3.52716 9.19373 4.31296 9.19373Z" fill="black"/>
<path d="M9.73472 9.19373C10.5205 9.19373 11.1575 8.14322 11.1575 6.84735C11.1575 5.55148 10.5205 4.50098 9.73472 4.50098C8.94891 4.50098 8.31189 5.55148 8.31189 6.84735C8.31189 8.14322 8.94891 9.19373 9.73472 9.19373Z" fill="black"/>
<path d="M16.1058 18.5671C17.2424 18.5671 18.1638 18.0654 18.1638 17.4466C18.1638 16.8278 17.2424 16.3262 16.1058 16.3262C14.9692 16.3262 14.0477 16.8278 14.0477 17.4466C14.0477 18.0654 14.9692 18.5671 16.1058 18.5671Z" fill="black"/>
<path d="M16.1058 22.3249C17.2424 22.3249 18.1638 21.8232 18.1638 21.2044C18.1638 20.5856 17.2424 20.084 16.1058 20.084C14.9692 20.084 14.0477 20.5856 14.0477 21.2044C14.0477 21.8232 14.9692 22.3249 16.1058 22.3249Z" fill="black"/>
<path d="M9.23309 22.8423C9.16042 22.8423 9.08541 22.8212 9.02213 22.7743C8.26032 22.2282 7.83839 20.8147 7.972 19.2559C7.97903 19.1622 7.99075 19.0708 8.00247 18.9817C8.02826 18.7825 8.20875 18.6395 8.41033 18.6676C8.60958 18.6934 8.75022 18.8762 8.72443 19.0755C8.71506 19.1552 8.70568 19.2395 8.69865 19.3216C8.57442 20.7608 8.97993 21.8508 9.4464 22.1836C9.61048 22.3008 9.64798 22.5282 9.53078 22.6923C9.46046 22.7907 9.34795 22.8447 9.23543 22.8447L9.23309 22.8423Z" fill="black"/>
</g>
<defs>
<clipPath id="clip0_380_3166">
<rect width="26" height="26" fill="white"/>
</clipPath>
</defs>
</svg>
