<svg width="99" height="26" viewBox="0 0 99 26" fill="none" xmlns="http://www.w3.org/2000/svg">
<g clip-path="url(#clip0_380_3158)">
<path d="M16.4838 7.98866H16.2691L12.1066 25.4729H7.07836L0 0.946289H5.13215L9.58556 18.1873H9.69638L13.9004 0.946289H18.8595L22.9873 18.1873H23.1328L27.6139 0.946289H32.746L25.6746 25.4729H20.6464L16.4838 7.98866Z" fill="#083F08"/>
<path d="M34.9762 2.59527C34.9762 1.15571 36.1605 0 37.7743 0C39.388 0 40.5724 1.15571 40.5724 2.59527C40.5724 4.03483 39.388 5.14999 37.7743 5.14999C36.1605 5.14999 34.9762 4.06187 34.9762 2.59527ZM35.4749 7.74526H40.0737V25.4796H35.4749V7.74526Z" fill="#083F08"/>
<path d="M46.1755 19.2753V11.53H42.8718V7.74527H44.9912C45.9608 7.74527 46.4664 7.2519 46.4664 6.34625V2.34521H50.6705V7.73851H54.4798V11.5233H50.7813V20.6338C50.7813 21.3704 51.1414 21.6881 51.8964 21.6881H54.9507V25.4728H52.866C48.5581 25.4728 46.1894 23.1614 46.1894 19.2685L46.1755 19.2753Z" fill="#083F08"/>
<path d="M66.7526 11.0705C64.2038 11.0705 62.41 12.7872 62.41 16.6396V25.4729H57.8112V0.946289H62.41V9.91484C63.5251 8.09004 65.3535 7.1844 67.8677 7.1844C72.141 7.1844 74.6551 9.81346 74.6551 14.2268V25.4729H70.0978V15.0648C70.0978 12.3344 68.9828 11.0705 66.7595 11.0705H66.7526Z" fill="#083F08"/>
<path d="M77.9935 15.4906V0.946289H82.8417V15.5582C82.8417 19.762 84.7464 21.8301 88.5141 21.8301C92.2818 21.8301 94.1865 19.9377 94.1865 15.5582V0.946289H99V15.4906C99 22.2897 94.976 26.0001 88.5141 26.0001C82.0522 26.0001 77.9935 22.0058 77.9935 15.4906Z" fill="#083F08"/>
</g>
<defs>
<clipPath id="clip0_380_3158">
<rect width="99" height="26" fill="white"/>
</clipPath>
</defs>
</svg>
