<svg width="56" height="56" viewBox="0 0 56 56" fill="none" xmlns="http://www.w3.org/2000/svg">
<circle cx="28" cy="28" r="28" fill="#B8EA9B"/>
<path d="M34.6666 44.6668L32.9999 38.0002M39.6666 31.3168C40.1086 31.3168 40.5325 31.1412 40.8451 30.8287C41.1576 30.5161 41.3332 30.0922 41.3332 29.6502V28.0002C41.3332 27.1161 40.982 26.2683 40.3569 25.6431C39.7318 25.018 38.884 24.6668 37.9999 24.6668H32.9999C32.5579 24.6668 32.1339 24.4912 31.8214 24.1787C31.5088 23.8661 31.3332 23.4422 31.3332 23.0002V14.6668C31.3332 13.7828 30.982 12.9349 30.3569 12.3098C29.7318 11.6847 28.884 11.3335 27.9999 11.3335C27.1158 11.3335 26.268 11.6847 25.6429 12.3098C25.0178 12.9349 24.6666 13.7828 24.6666 14.6668V23.0002C24.6666 23.4422 24.491 23.8661 24.1784 24.1787C23.8658 24.4912 23.4419 24.6668 22.9999 24.6668H17.9999C17.1158 24.6668 16.268 25.018 15.6429 25.6431C15.0178 26.2683 14.6666 27.1161 14.6666 28.0002V29.6502C14.6666 30.0922 14.8422 30.5161 15.1547 30.8287C15.4673 31.1412 15.8912 31.3168 16.3332 31.3168M21.3332 44.6668L22.9999 38.0002M16.3332 31.3335H39.6666L42.9549 42.6118C43.0136 42.8569 43.016 43.112 42.9619 43.3581C42.9078 43.6042 42.7985 43.8348 42.6425 44.0326C42.4864 44.2304 42.2875 44.3903 42.0607 44.5001C41.8339 44.61 41.5852 44.667 41.3332 44.6668H14.6666C14.4146 44.667 14.1659 44.61 13.9391 44.5001C13.7123 44.3903 13.5134 44.2304 13.3573 44.0326C13.2012 43.8348 13.092 43.6042 13.0379 43.3581C12.9838 43.112 12.9862 42.8569 13.0449 42.6118L16.3332 31.3335Z" stroke="#083F08" stroke-width="2" stroke-linecap="round" stroke-linejoin="round"/>
</svg>
