<svg width="56" height="56" viewBox="0 0 56 56" fill="none" xmlns="http://www.w3.org/2000/svg">
<circle cx="28" cy="28" r="28" fill="#B8EA9B"/>
<path d="M24.8333 11.6366C26.925 11.2318 29.0749 11.2318 31.1666 11.6366M31.1666 44.3633C29.0749 44.7681 26.925 44.7681 24.8333 44.3633M37.3483 14.2016C39.1174 15.4003 40.6395 16.9281 41.8316 18.7016M11.6366 31.1666C11.2318 29.0749 11.2318 26.925 11.6366 24.8333M41.7983 37.3483C40.5996 39.1174 39.0718 40.6395 37.2983 41.8316M44.3633 24.8333C44.7681 26.925 44.7681 29.0749 44.3633 31.1666M14.2016 18.6516C15.4003 16.8825 16.9281 15.3604 18.7016 14.1683M18.6516 41.7983C16.8825 40.5996 15.3604 39.0718 14.1683 37.2983" stroke="#083F08" stroke-width="2" stroke-linecap="round" stroke-linejoin="round"/>
</svg>
