<svg width="56" height="56" viewBox="0 0 56 56" fill="none" xmlns="http://www.w3.org/2000/svg">
<circle cx="28" cy="28" r="28" fill="#B8EA9B"/>
<path d="M28.0002 42.9C30.5002 42.9 32.5835 44.6666 34.6668 44.6666C39.6668 44.6666 44.6668 31.3333 44.6668 24.3C44.61 22.1412 43.7022 20.0923 42.1412 18.6C40.5802 17.1077 38.4927 16.293 36.3335 16.3333C32.6335 16.3333 29.6668 18.7333 28.0002 19.6666C26.3335 18.7333 23.3668 16.3333 19.6668 16.3333C17.5064 16.2886 15.4163 17.1019 13.8544 18.5951C12.2924 20.0883 11.386 22.1397 11.3335 24.3C11.3335 31.3333 16.3335 44.6666 21.3335 44.6666C23.4168 44.6666 25.5002 42.9 28.0002 42.9Z" stroke="#083F08" stroke-width="2" stroke-linecap="round" stroke-linejoin="round"/>
<path d="M24.667 11.3335C26.3337 12.1668 28.0003 14.6668 28.0003 19.6668" stroke="#083F08" stroke-width="2" stroke-linecap="round" stroke-linejoin="round"/>
</svg>
