<svg width="56" height="56" viewBox="0 0 56 56" fill="none" xmlns="http://www.w3.org/2000/svg">
<circle cx="28" cy="28" r="28" fill="#B8EA9B"/>
<path d="M28 17.3331C28.002 16.6665 27.8706 16.0062 27.6137 15.3911C27.3567 14.776 26.9794 14.2185 26.5038 13.7513C26.0283 13.2842 25.4641 12.9169 24.8445 12.671C24.2249 12.4251 23.5623 12.3056 22.8959 12.3194C22.2294 12.3333 21.5724 12.4804 20.9636 12.7519C20.3548 13.0234 19.8064 13.4139 19.3507 13.9004C18.895 14.387 18.5412 14.9597 18.3101 15.585C18.079 16.2103 17.9753 16.8755 18.005 17.5414C17.0254 17.7933 16.1159 18.2648 15.3454 18.9203C14.575 19.5757 13.9638 20.3979 13.5581 21.3245C13.1525 22.2511 12.963 23.2579 13.004 24.2686C13.0451 25.2793 13.3156 26.2674 13.795 27.1581C12.952 27.843 12.2891 28.7235 11.8639 29.723C11.4388 30.7225 11.2643 31.8107 11.3556 32.8931C11.447 33.9754 11.8014 35.019 12.3881 35.9331C12.9747 36.8472 13.7758 37.6042 14.7217 38.1381C14.6049 39.0418 14.6746 39.9599 14.9265 40.8356C15.1784 41.7114 15.6072 42.5262 16.1864 43.2297C16.7655 43.9332 17.4827 44.5105 18.2937 44.926C19.1048 45.3415 19.9923 45.5863 20.9017 45.6453C21.811 45.7043 22.7228 45.5763 23.5807 45.2691C24.4386 44.9619 25.2244 44.4821 25.8896 43.8594C26.5549 43.2366 27.0853 42.484 27.4483 41.6482C27.8113 40.8124 27.9991 39.911 28 38.9998V17.3331Z" stroke="#083F08" stroke-width="2" stroke-linecap="round" stroke-linejoin="round"/>
<path d="M28 17.3331C27.9981 16.6665 28.1294 16.0062 28.3864 15.3911C28.6433 14.776 29.0207 14.2185 29.4962 13.7513C29.9718 13.2842 30.536 12.9169 31.1556 12.671C31.7752 12.4251 32.4377 12.3056 33.1042 12.3194C33.7707 12.3333 34.4276 12.4804 35.0365 12.7519C35.6453 13.0234 36.1937 13.4139 36.6494 13.9004C37.105 14.387 37.4588 14.9597 37.6899 15.585C37.921 16.2103 38.0248 16.8755 37.995 17.5414C38.9747 17.7933 39.8842 18.2648 40.6546 18.9203C41.4251 19.5757 42.0363 20.3979 42.442 21.3245C42.8476 22.2511 43.0371 23.2579 42.996 24.2686C42.955 25.2793 42.6845 26.2674 42.205 27.1581C43.0481 27.843 43.711 28.7235 44.1361 29.723C44.5613 30.7225 44.7358 31.8107 44.6444 32.8931C44.5531 33.9754 44.1987 35.019 43.612 35.9331C43.0254 36.8472 42.2242 37.6042 41.2784 38.1381C41.3952 39.0418 41.3255 39.9599 41.0735 40.8356C40.8216 41.7114 40.3929 42.5262 39.8137 43.2297C39.2346 43.9332 38.5173 44.5105 37.7063 44.926C36.8953 45.3415 36.0077 45.5863 35.0984 45.6453C34.1891 45.7043 33.2773 45.5763 32.4194 45.2691C31.5615 44.9619 30.7756 44.4821 30.1104 43.8594C29.4452 43.2366 28.9147 42.484 28.5517 41.6482C28.1888 40.8124 28.001 39.911 28 38.9998V17.3331Z" stroke="#083F08" stroke-width="2" stroke-linecap="round" stroke-linejoin="round"/>
<path d="M32.9999 30.6665C31.6007 30.1743 30.3788 29.2782 29.4888 28.0915C28.5988 26.9049 28.0807 25.481 27.9999 23.9998C27.9192 25.481 27.401 26.9049 26.511 28.0915C25.6211 29.2782 24.3992 30.1743 22.9999 30.6665M37.3316 19.8332C37.735 19.1341 37.9631 18.3479 37.9966 17.5415M18.0049 17.5415C18.0379 18.3477 18.2655 19.134 18.6683 19.8332M13.7949 27.1598C14.0998 26.9115 14.4261 26.6907 14.7699 26.4998M41.2299 26.4998C41.5738 26.6907 41.9 26.9115 42.2049 27.1598M17.9999 38.9998C16.8513 39.0004 15.722 38.7041 14.7216 38.1398M41.2783 38.1398C40.2778 38.7041 39.1485 39.0004 37.9999 38.9998" stroke="#083F08" stroke-width="2" stroke-linecap="round" stroke-linejoin="round"/>
</svg>
