<svg width="56" height="56" viewBox="0 0 56 56" fill="none" xmlns="http://www.w3.org/2000/svg">
<circle cx="28" cy="28" r="28" fill="#B8EA9B"/>
<path d="M33.625 31.5835C34.0333 29.5418 35.0542 28.1127 36.6875 26.4793C38.7292 24.6418 39.75 21.9877 39.75 19.3335C39.75 16.0846 38.4594 12.9688 36.1621 10.6714C33.8647 8.37412 30.7489 7.0835 27.5 7.0835C24.2511 7.0835 21.1353 8.37412 18.8379 10.6714C16.5406 12.9688 15.25 16.0846 15.25 19.3335C15.25 21.3752 15.6583 23.8252 18.3125 26.4793C19.7417 27.9085 20.9667 29.5418 21.375 31.5835M21.375 39.7502H33.625M23.4167 47.9168H31.5833" stroke="#083F08" stroke-width="2" stroke-linecap="round" stroke-linejoin="round"/>
</svg>
