<svg width="56" height="56" viewBox="0 0 56 56" fill="none" xmlns="http://www.w3.org/2000/svg">
<circle cx="28" cy="28" r="28" fill="#B8EA9B"/>
<path d="M31.0535 35.6135C31.3977 35.7716 31.7855 35.8077 32.153 35.7159C32.5205 35.6241 32.8457 35.4099 33.0752 35.1085L33.6668 34.3335C33.9773 33.9195 34.3799 33.5835 34.8428 33.3521C35.3056 33.1206 35.816 33.0002 36.3335 33.0002H41.3335C42.2176 33.0002 43.0654 33.3514 43.6905 33.9765C44.3156 34.6016 44.6668 35.4494 44.6668 36.3335V41.3335C44.6668 42.2176 44.3156 43.0654 43.6905 43.6905C43.0654 44.3156 42.2176 44.6668 41.3335 44.6668C33.377 44.6668 25.7464 41.5061 20.1203 35.88C14.4942 30.2539 11.3335 22.6233 11.3335 14.6668C11.3335 13.7828 11.6847 12.9349 12.3098 12.3098C12.9349 11.6847 13.7828 11.3335 14.6668 11.3335H19.6668C20.5509 11.3335 21.3987 11.6847 22.0239 12.3098C22.649 12.9349 23.0002 13.7828 23.0002 14.6668V19.6668C23.0002 20.1843 22.8797 20.6947 22.6483 21.1575C22.4168 21.6204 22.0808 22.023 21.6668 22.3335L20.8868 22.9185C20.5809 23.1521 20.3652 23.4845 20.2765 23.8591C20.1878 24.2337 20.2315 24.6275 20.4002 24.9735C22.678 29.5999 26.4242 33.3415 31.0535 35.6135Z" stroke="#083F08" stroke-width="2" stroke-linecap="round" stroke-linejoin="round"/>
</svg>
