<svg width="56" height="56" viewBox="0 0 56 56" fill="none" xmlns="http://www.w3.org/2000/svg">
<circle cx="28" cy="28" r="28" fill="#B8EA9B"/>
<path d="M11.3335 41.3332V27.9998C11.3335 27.1158 11.6847 26.2679 12.3098 25.6428C12.9349 25.0177 13.7828 24.6665 14.6668 24.6665M14.6668 24.6665H41.3335M14.6668 24.6665V17.9998C14.6668 17.1158 15.018 16.2679 15.6431 15.6428C16.2683 15.0177 17.1161 14.6665 18.0002 14.6665H38.0002C38.8842 14.6665 39.7321 15.0177 40.3572 15.6428C40.9823 16.2679 41.3335 17.1158 41.3335 17.9998V24.6665M41.3335 24.6665C42.2176 24.6665 43.0654 25.0177 43.6905 25.6428C44.3156 26.2679 44.6668 27.1158 44.6668 27.9998V41.3332M28.0002 14.6665V24.6665M11.3335 37.9998H44.6668" stroke="#083F08" stroke-width="2" stroke-linecap="round" stroke-linejoin="round"/>
</svg>
